<svg width="679" height="638" viewBox="0 0 679 638" fill="none" xmlns="http://www.w3.org/2000/svg">
<g clip-path="url(#clip0_118_359)">
<g filter="url(#filter0_d_118_359)">
<path d="M644.798 213.769C641.466 217.333 637.784 220.835 633.883 224.161L554.596 291.329L545.138 299.332L540.567 250.164L540.165 246.455L539.179 239.877C538.568 236.498 537.805 233.049 536.583 228.429C534.57 221.019 531.776 213.61 528.278 206.32C528.167 206.056 528.014 205.792 527.875 205.528V205.515L535.792 198.818L577.151 163.782C578.554 162.594 579.983 161.221 581.205 159.954C590.094 150.459 594.539 138.281 593.772 125.644C592.995 112.991 587.091 101.383 577.148 92.9709C567.94 85.1656 556.289 80.9412 544.066 80.9412C543.066 80.9412 542.094 80.9809 541.109 81.0469C527.816 81.7597 515.61 87.3867 506.735 96.8289L470.71 135.287L463.737 142.736H463.723L401.449 209.254H401.435L393.089 218.168L362.953 250.326L354.509 259.333L248.765 250.498L257.195 241.504L288.695 207.881L297.042 198.98L366.83 124.495L375.163 115.608L443.187 42.9844C467.173 17.3773 500.197 2.18933 536.212 0.222346C572.195 -1.77104 606.874 9.69093 633.803 32.5125C660.732 55.321 676.69 86.7498 678.772 120.984C680.837 155.211 668.784 188.162 644.798 213.769Z" fill="url(#paint0_linear_118_359)"/>
</g>
<g filter="url(#filter1_d_118_359)">
<path d="M465.865 366.487V366.5L456.407 374.503L425.324 400.81L415.978 408.734L337.593 475.15L328.233 483.074L208.821 584.221C189.378 600.69 165.115 608.786 140.921 608.786C112.784 608.786 84.745 597.825 64.5909 576.324C30.0509 539.44 30.0648 483.866 64.6325 447.047L169.696 334.9L178.127 325.906H178.14L283.857 334.741L275.413 343.761L128.142 500.971C122.405 507.087 122.405 516.331 128.156 522.459C134.407 529.129 145.183 529.71 152.183 523.78L317.411 383.817L326.785 375.88L405.17 309.464L414.544 301.514L447.071 273.979L456.529 265.963L465.865 366.487Z" fill="url(#paint1_linear_118_359)"/>
</g>
<path d="M465.129 637.591C461.853 637.855 458.601 638 455.366 638C399.357 638 350.872 597.245 345.01 543.311L337.593 475.153L415.978 408.738L429.701 534.978C431.144 548.278 443.715 558.103 457.601 556.941C471.81 555.74 482.337 543.813 481.073 530.371L465.865 366.504V366.491L456.532 265.963V265.95L455.574 255.584L455.172 253.023C454.88 251.505 454.408 249.709 454.089 248.452C453.381 245.878 452.256 242.917 450.854 239.947C448.23 234.505 444.548 229.475 439.953 225.128C435.271 220.624 429.829 216.967 424.05 214.419C421.232 213.152 418.175 212.109 415.148 211.317C413.441 210.907 411.705 210.511 410.522 210.3L404.993 209.601L401.453 209.257L463.727 142.736H463.741C477.353 149.261 489.615 157.726 500.322 168.04C511.709 178.842 521.027 191.521 527.875 205.518V205.531C528.014 205.795 528.167 206.059 528.278 206.323C531.776 213.614 534.57 221.023 536.583 228.432C537.805 233.056 538.568 236.501 539.179 239.881L540.165 246.458L540.567 250.168L545.138 299.336V299.349L545.652 304.87L565.886 523.239C571.303 581.093 526.112 632.426 465.129 637.591Z" fill="url(#paint2_linear_118_359)"/>
<path d="M405.173 309.464L326.789 375.879L324.082 351.104C323.249 343.51 316.873 337.513 308.831 336.827L283.86 334.741L178.144 325.906H178.13L105.427 319.817C74.68 317.243 46.8176 303.415 26.9862 280.897C7.15487 258.392 -2.26102 229.88 0.459974 200.617C3.11156 171.445 17.612 144.924 41.2784 126.053C64.7366 107.34 94.3864 98.3731 124.814 100.71H125.313L366.812 124.495H366.826L297.042 198.976L271.598 196.468L118.219 181.412C117.303 181.333 116.401 181.32 115.485 181.32C108.359 181.32 101.526 183.656 96.0003 188.069C89.7913 193.023 85.9735 200.006 85.2794 207.679C84.5436 215.471 87.0286 222.999 92.2519 228.917C97.4892 234.847 104.805 238.491 112.902 239.164L248.754 250.494H248.768L354.512 259.329L377.776 261.27C390.763 262.352 401.109 272.058 402.456 284.382L405.173 309.464Z" fill="url(#paint3_linear_118_359)"/>
<path d="M326.789 375.877L403.924 297.953L405.173 309.465L326.789 375.877Z" fill="url(#paint4_linear_118_359)"/>
<path d="M297.042 198.977L366.83 124.492L349.15 122.753L297.042 198.977Z" fill="url(#paint5_linear_118_359)"/>
</g>
<defs>
<filter id="filter0_d_118_359" x="244.765" y="0" width="438.235" height="307.332" filterUnits="userSpaceOnUse" color-interpolation-filters="sRGB">
<feFlood flood-opacity="0" result="BackgroundImageFix"/>
<feColorMatrix in="SourceAlpha" type="matrix" values="0 0 0 0 0 0 0 0 0 0 0 0 0 0 0 0 0 0 127 0" result="hardAlpha"/>
<feOffset dy="4"/>
<feGaussianBlur stdDeviation="2"/>
<feComposite in2="hardAlpha" operator="out"/>
<feColorMatrix type="matrix" values="0 0 0 0 0 0 0 0 0 0 0 0 0 0 0 0 0 0 0.25 0"/>
<feBlend mode="normal" in2="BackgroundImageFix" result="effect1_dropShadow_118_359"/>
<feBlend mode="normal" in="SourceGraphic" in2="effect1_dropShadow_118_359" result="shape"/>
</filter>
<filter id="filter1_d_118_359" x="34.6963" y="265.963" width="435.169" height="350.822" filterUnits="userSpaceOnUse" color-interpolation-filters="sRGB">
<feFlood flood-opacity="0" result="BackgroundImageFix"/>
<feColorMatrix in="SourceAlpha" type="matrix" values="0 0 0 0 0 0 0 0 0 0 0 0 0 0 0 0 0 0 127 0" result="hardAlpha"/>
<feOffset dy="4"/>
<feGaussianBlur stdDeviation="2"/>
<feComposite in2="hardAlpha" operator="out"/>
<feColorMatrix type="matrix" values="0 0 0 0 0 0 0 0 0 0 0 0 0 0 0 0 0 0 0.25 0"/>
<feBlend mode="normal" in2="BackgroundImageFix" result="effect1_dropShadow_118_359"/>
<feBlend mode="normal" in="SourceGraphic" in2="effect1_dropShadow_118_359" result="shape"/>
</filter>
<linearGradient id="paint0_linear_118_359" x1="463.882" y1="0" x2="463.882" y2="299.332" gradientUnits="userSpaceOnUse">
<stop stop-color="#B6FF9C"/>
<stop offset="1" stop-color="#36DF1B"/>
</linearGradient>
<linearGradient id="paint1_linear_118_359" x1="252.281" y1="265.963" x2="252.281" y2="608.786" gradientUnits="userSpaceOnUse">
<stop stop-color="#B6FF9C"/>
<stop offset="1" stop-color="#36DF1B"/>
</linearGradient>
<linearGradient id="paint2_linear_118_359" x1="451.959" y1="142.736" x2="451.959" y2="638" gradientUnits="userSpaceOnUse">
<stop stop-color="#F68CFF"/>
<stop offset="1" stop-color="#FB9CCA"/>
</linearGradient>
<linearGradient id="paint3_linear_118_359" x1="202.587" y1="100.346" x2="202.587" y2="375.879" gradientUnits="userSpaceOnUse">
<stop stop-color="#F68CFF"/>
<stop offset="1" stop-color="#FB9CCA"/>
</linearGradient>
<linearGradient id="paint4_linear_118_359" x1="365.981" y1="297.953" x2="365.981" y2="375.877" gradientUnits="userSpaceOnUse">
<stop stop-color="#F68CFF"/>
<stop offset="1" stop-color="#FB9CCA"/>
</linearGradient>
<linearGradient id="paint5_linear_118_359" x1="331.936" y1="122.753" x2="331.936" y2="198.977" gradientUnits="userSpaceOnUse">
<stop stop-color="#F68CFF"/>
<stop offset="1" stop-color="#FB9CCA"/>
</linearGradient>
<clipPath id="clip0_118_359">
<rect width="679" height="638" fill="white"/>
</clipPath>
</defs>
</svg>
