<svg width="113" height="24" viewBox="0 0 113 24" fill="none" xmlns="http://www.w3.org/2000/svg">
<g clip-path="url(#clip0_69_13163)">
<path d="M39.8872 8.74363C39.8149 8.1901 39.6414 7.7094 39.3667 7.30154C38.8027 6.42754 37.8701 5.99055 36.5688 5.99055C35.4843 5.99055 34.6963 6.23818 34.2047 6.73344C33.7564 7.19957 33.5323 7.83322 33.5323 8.63438C33.5323 9.52294 33.7781 10.1347 34.2697 10.4698C34.7613 10.8048 35.4482 11.0087 36.3302 11.0816C37.1688 11.1544 37.8773 11.2709 38.4557 11.4312C39.0341 11.5768 39.5185 11.7808 39.9089 12.0429C40.9355 12.6839 41.4488 13.689 41.4488 15.0582C41.4488 15.5972 41.3404 16.107 41.1235 16.5877C40.921 17.0684 40.6246 17.4981 40.2342 17.8769C39.3522 18.7508 38.1448 19.1878 36.6121 19.1878C35.065 19.1878 33.8432 18.7581 32.9467 17.8987C32.1803 17.1849 31.7176 16.2235 31.5586 15.0145H33.0551C33.1853 15.7429 33.4889 16.3401 33.9661 16.8062C34.5878 17.3889 35.4771 17.6802 36.6338 17.6802C37.6171 17.6802 38.4123 17.4399 39.0196 16.9592C39.6414 16.4639 39.9523 15.8303 39.9523 15.0582C39.9523 14.563 39.851 14.1551 39.6486 13.8346C39.4606 13.4996 39.0919 13.2301 38.5425 13.0262C37.993 12.8223 37.2122 12.6766 36.2001 12.5892C33.4239 12.3416 32.0358 11.0233 32.0358 8.63438C32.0358 8.03715 32.1297 7.4909 32.3177 6.99564C32.5201 6.48581 32.8021 6.04881 33.1636 5.68465C33.9589 4.88349 35.0867 4.48291 36.5471 4.48291H36.5688C38.0581 4.49748 39.1931 4.91262 39.974 5.72835C40.7692 6.52951 41.2391 7.54188 41.3837 8.76547H39.8872V8.74363ZM44.3248 14.4027C44.4983 15.335 44.9538 16.1143 45.6912 16.7407C46.4286 17.3525 47.2745 17.6584 48.2288 17.6584C48.9373 17.6584 49.588 17.4908 50.1808 17.1558C50.7737 16.8208 51.2508 16.3619 51.6123 15.7793L52.892 16.5222C52.4003 17.3233 51.7424 17.9643 50.9183 18.4449C50.0941 18.9256 49.1976 19.166 48.2288 19.166C47.2456 19.166 46.3346 18.9184 45.496 18.4231C44.6573 17.9278 43.9922 17.2578 43.5006 16.4129C43.009 15.5681 42.7632 14.6504 42.7632 13.6598C42.7632 12.6547 43.009 11.7371 43.5006 10.9068C43.9922 10.0619 44.6573 9.39184 45.496 8.89657C46.3346 8.40131 47.2456 8.15368 48.2288 8.15368C49.212 8.15368 50.123 8.40131 50.9616 8.89657C51.8003 9.39184 52.4654 10.0619 52.957 10.9068C53.4486 11.7371 53.6944 12.6547 53.6944 13.6598C53.6944 13.8346 53.68 14.0823 53.6511 14.4027H44.3248ZM48.2288 9.63947C47.5926 9.63947 46.9708 9.79242 46.3635 10.0983C45.7563 10.3896 45.2646 10.7975 44.8887 11.3219C44.5127 11.8317 44.3248 12.3853 44.3248 12.9825H52.1328C52.1328 12.3853 51.9449 11.8317 51.5689 11.3219C51.193 10.7975 50.7014 10.3896 50.0941 10.0983C49.5012 9.79242 48.8795 9.63947 48.2288 9.63947ZM57.121 4.52661V19.0567H55.6461V4.52661H57.121ZM60.764 4.52661V19.0567H59.2891V4.52661H60.764ZM71.0439 8.74363C70.9716 8.1901 70.7981 7.7094 70.5234 7.30154C69.9594 6.42754 69.0268 5.99055 67.7255 5.99055C66.641 5.99055 65.853 6.23818 65.3614 6.73344C64.9131 7.19957 64.689 7.83322 64.689 8.63438C64.689 9.52294 64.9348 10.1347 65.4264 10.4698C65.918 10.8048 66.6049 11.0087 67.4869 11.0816C68.3255 11.1544 69.034 11.2709 69.6124 11.4312C70.1908 11.5768 70.6752 11.7808 71.0656 12.0429C72.0922 12.6839 72.6055 13.689 72.6055 15.0582C72.6055 15.5972 72.4971 16.107 72.2802 16.5877C72.0777 17.0684 71.7813 17.4981 71.3909 17.8769C70.5089 18.7508 69.3015 19.1878 67.7688 19.1878C66.2217 19.1878 64.9999 18.7581 64.1034 17.8987C63.337 17.1849 62.8743 16.2235 62.7153 15.0145H64.2118C64.342 15.7429 64.6456 16.3401 65.1228 16.8062C65.7445 17.3889 66.6338 17.6802 67.7905 17.6802C68.7738 17.6802 69.569 17.4399 70.1763 16.9592C70.7981 16.4639 71.109 15.8303 71.109 15.0582C71.109 14.563 71.0077 14.1551 70.8053 13.8346C70.6173 13.4996 70.2486 13.2301 69.6992 13.0262C69.1497 12.8223 68.3689 12.6766 67.3568 12.5892C64.5806 12.3416 63.1924 11.0233 63.1924 8.63438C63.1924 8.03715 63.2864 7.4909 63.4744 6.99564C63.6768 6.48581 63.9588 6.04881 64.3203 5.68465C65.1155 4.88349 66.2434 4.48291 67.7038 4.48291H67.7255C69.2148 4.49748 70.3498 4.91262 71.1306 5.72835C71.9259 6.52951 72.3958 7.54188 72.5404 8.76547H71.0439V8.74363ZM83.5502 17.2214C83.0296 17.8332 82.4079 18.3138 81.6849 18.6634C80.9764 18.9985 80.21 19.166 79.3859 19.166C78.4026 19.166 77.4917 18.9184 76.653 18.4231C75.8144 17.9278 75.1493 17.2578 74.6576 16.4129C74.166 15.5681 73.9202 14.6504 73.9202 13.6598C73.9202 12.6693 74.166 11.7516 74.6576 10.9068C75.1493 10.0619 75.8144 9.39184 76.653 8.89657C77.4917 8.40131 78.4026 8.15368 79.3859 8.15368C80.21 8.15368 80.9764 8.32848 81.6849 8.67808C82.4079 9.01311 83.0296 9.48652 83.5502 10.0983L82.2271 10.8631C81.8656 10.4843 81.4391 10.193 80.9475 9.98907C80.4559 9.77057 79.9353 9.66132 79.3859 9.66132C78.6629 9.66132 77.9978 9.8434 77.3905 10.2076C76.7832 10.5572 76.2988 11.0379 75.9373 11.6497C75.5758 12.2614 75.3951 12.9315 75.3951 13.6598C75.3951 14.3882 75.5758 15.0582 75.9373 15.67C76.2988 16.2818 76.7832 16.7698 77.3905 17.134C77.9978 17.4836 78.6629 17.6584 79.3859 17.6584C79.9353 17.6584 80.4559 17.5564 80.9475 17.3525C81.4391 17.134 81.8656 16.8353 82.2271 16.4566L83.5502 17.2214ZM95.5905 8.41588V19.0567H94.0939V17.0466C93.0962 18.4595 91.766 19.166 90.1032 19.166C89.1055 19.166 88.1873 18.9256 87.3486 18.4449C86.51 17.9497 85.8449 17.2796 85.3532 16.4348C84.8761 15.5899 84.6375 14.6722 84.6375 13.6817C84.6375 12.6766 84.8761 11.7516 85.3532 10.9068C85.8449 10.0619 86.51 9.39912 87.3486 8.91842C88.1873 8.42316 89.1055 8.17553 90.1032 8.17553C91.1298 8.17553 91.9684 8.39403 92.6191 8.83102C93.2842 9.25345 93.7758 9.7123 94.0939 10.2076V8.41588H95.5905ZM90.1032 17.6802C90.8261 17.6802 91.4912 17.5054 92.0985 17.1558C92.7058 16.7916 93.183 16.3037 93.53 15.6919C93.8915 15.0801 94.0723 14.41 94.0723 13.6817C94.0723 12.9534 93.8915 12.2833 93.53 11.6715C93.183 11.0451 92.7058 10.5572 92.0985 10.2076C91.4912 9.8434 90.8261 9.66132 90.1032 9.66132C89.3802 9.66132 88.7078 9.8434 88.0861 10.2076C87.4788 10.5572 86.9944 11.0451 86.6329 11.6715C86.2859 12.2833 86.1124 12.9534 86.1124 13.6817C86.1124 14.41 86.2859 15.0801 86.6329 15.6919C86.9944 16.3037 87.4788 16.7916 88.0861 17.1558C88.7078 17.5054 89.3802 17.6802 90.1032 17.6802ZM99.2285 4.52661V19.0567H97.7536V4.52661H99.2285ZM102.741 14.4027C102.915 15.335 103.37 16.1143 104.108 16.7407C104.845 17.3525 105.691 17.6584 106.645 17.6584C107.354 17.6584 108.005 17.4908 108.597 17.1558C109.19 16.8208 109.667 16.3619 110.029 15.7793L111.309 16.5222C110.817 17.3233 110.159 17.9643 109.335 18.4449C108.511 18.9256 107.614 19.166 106.645 19.166C105.662 19.166 104.751 18.9184 103.913 18.4231C103.074 17.9278 102.409 17.2578 101.917 16.4129C101.426 15.5681 101.18 14.6504 101.18 13.6598C101.18 12.6547 101.426 11.7371 101.917 10.9068C102.409 10.0619 103.074 9.39184 103.913 8.89657C104.751 8.40131 105.662 8.15368 106.645 8.15368C107.629 8.15368 108.54 8.40131 109.378 8.89657C110.217 9.39184 110.882 10.0619 111.374 10.9068C111.865 11.7371 112.111 12.6547 112.111 13.6598C112.111 13.8346 112.097 14.0823 112.068 14.4027H102.741ZM106.645 9.63947C106.009 9.63947 105.387 9.79242 104.78 10.0983C104.173 10.3896 103.681 10.7975 103.305 11.3219C102.929 11.8317 102.741 12.3853 102.741 12.9825H110.549C110.549 12.3853 110.361 11.8317 109.986 11.3219C109.61 10.7975 109.118 10.3896 108.511 10.0983C107.918 9.79242 107.296 9.63947 106.645 9.63947Z" fill="white"/>
<mask id="mask0_69_13163" style="mask-type:luminance" maskUnits="userSpaceOnUse" x="0" y="0" width="25" height="24">
<path d="M24.5448 0.411133H0V23.6448H24.5448V0.411133Z" fill="white"/>
</mask>
<g mask="url(#mask0_69_13163)">
<g filter="url(#filter0_d_69_13163)">
<path d="M23.3101 8.19582C23.1897 8.32561 23.0566 8.45314 22.9156 8.57426L20.0495 11.0203L19.7076 11.3117L19.5423 9.5212L19.5278 9.38613L19.4922 9.14658C19.4701 9.02353 19.4425 8.89793 19.3983 8.72969C19.3255 8.45984 19.2245 8.19003 19.0981 7.92456C19.0941 7.91495 19.0886 7.90533 19.0835 7.89572V7.89524L19.3697 7.65136L20.8648 6.37548C20.9155 6.33222 20.9672 6.28222 21.0113 6.23608C21.3327 5.8903 21.4933 5.44683 21.4656 4.98663C21.4375 4.52586 21.2241 4.10313 20.8647 3.7968C20.5318 3.51256 20.1107 3.35872 19.6688 3.35872C19.6327 3.35872 19.5975 3.36016 19.5619 3.36257C19.0814 3.38852 18.6402 3.59344 18.3194 3.93729L17.0171 5.33779L16.765 5.60906H16.7645L14.5134 8.0314H14.5129L14.2112 8.35602L13.1219 9.5271L12.8166 9.8551L8.99414 9.53336L9.29887 9.20583L10.4375 7.9814L10.7393 7.65726L13.262 4.94479L13.5632 4.62116L16.0222 1.97647C16.8892 1.04395 18.083 0.49086 19.3849 0.41923C20.6856 0.346638 21.9392 0.764041 22.9127 1.59512C23.8861 2.42572 24.463 3.57025 24.5382 4.81693C24.6129 6.06335 24.1772 7.26331 23.3101 8.19582Z" fill="#75FF00"/>
</g>
<g filter="url(#filter1_d_69_13163)">
<path d="M16.8409 13.7574V13.7579L16.499 14.0493L15.3754 15.0073L15.0376 15.2959L12.2041 17.7145L11.8657 18.0031L7.54916 21.6865C6.84632 22.2862 5.96925 22.581 5.09468 22.581C4.07757 22.581 3.064 22.1819 2.33546 21.3989C1.0869 20.0557 1.0874 18.0319 2.33697 16.6911L6.13485 12.6071L6.43962 12.2796H6.44008L10.2616 12.6013L9.95635 12.9298L4.63274 18.6548C4.42535 18.8775 4.42535 19.2142 4.63324 19.4373C4.85921 19.6802 5.24874 19.7014 5.50178 19.4854L11.4745 14.3885L11.8134 14.0995L14.6469 11.6808L14.9857 11.3913L16.1615 10.3886L16.5034 10.0967L16.8409 13.7574Z" fill="#75FF00"/>
</g>
<path d="M16.8134 23.6297C16.6949 23.6393 16.5774 23.6446 16.4604 23.6446C14.4358 23.6446 12.6831 22.1605 12.4712 20.1964L12.2031 17.7143L15.0366 15.2957L15.5327 19.8929C15.5848 20.3773 16.0393 20.735 16.5412 20.6927C17.0549 20.649 17.4354 20.2147 17.3897 19.7251L16.84 13.7577V13.7572L16.5026 10.0964V10.0959L16.468 9.7184L16.4534 9.62514C16.4429 9.56986 16.4258 9.50446 16.4143 9.45868C16.3887 9.36494 16.348 9.25712 16.2973 9.14896C16.2025 8.95078 16.0694 8.76761 15.9033 8.60931C15.734 8.44529 15.5373 8.31211 15.3284 8.21932C15.2265 8.17318 15.116 8.1352 15.0066 8.10636C14.9449 8.09143 14.8822 8.07701 14.8394 8.06932L14.6395 8.04387L14.5116 8.03134L16.7627 5.60889H16.7632C17.2552 5.8465 17.6985 6.15477 18.0855 6.53037C18.4971 6.92374 18.834 7.38546 19.0815 7.89518V7.89565C19.0865 7.90527 19.0921 7.91488 19.0961 7.92449C19.2225 8.19001 19.3235 8.45982 19.3963 8.72962C19.4405 8.89801 19.4681 9.02347 19.4901 9.14656L19.5258 9.38607L19.5403 9.52117L19.7056 11.3117V11.3122L19.7241 11.5132L20.4556 19.4654C20.6514 21.5723 19.0178 23.4416 16.8134 23.6297Z" fill="#EA5CF6"/>
<path d="M14.6464 11.6808L11.8129 14.0993L11.7151 13.1971C11.6849 12.9206 11.4545 12.7022 11.1638 12.6772L10.2611 12.6012L6.43963 12.2795H6.43912L3.81102 12.0578C2.69956 11.964 1.69238 11.4605 0.975509 10.6404C0.258637 9.82089 -0.0817324 8.78259 0.0166273 7.71694C0.112478 6.6546 0.636646 5.6888 1.49215 5.00159C2.34013 4.32013 3.41192 3.99359 4.51183 4.07869H4.52987L13.2597 4.94485H13.2602L10.7376 7.65718L9.81784 7.56585L4.27343 7.01756C4.24032 7.01469 4.20771 7.01421 4.1746 7.01421C3.91701 7.01421 3.67001 7.09928 3.47026 7.25999C3.24581 7.44039 3.10781 7.69469 3.08272 7.97411C3.05612 8.25787 3.14595 8.53201 3.33476 8.74752C3.52408 8.96347 3.78854 9.09617 4.08123 9.12068L8.99207 9.53328H8.99257L12.8151 9.85502L13.656 9.9257C14.1255 9.9651 14.4995 10.3186 14.5482 10.7674L14.6464 11.6808Z" fill="#EA5CF6"/>
<path d="M11.8125 14.0994L14.6008 11.2617L14.646 11.6809L11.8125 14.0994Z" fill="#EA5CF6"/>
<path d="M10.7393 7.65764L13.262 4.94516L12.6229 4.88184L10.7393 7.65764Z" fill="#EA5CF6"/>
</g>
</g>
<defs>
<filter id="filter0_d_69_13163" x="4.76984" y="0.411133" width="24.0013" height="19.349" filterUnits="userSpaceOnUse" color-interpolation-filters="sRGB">
<feFlood flood-opacity="0" result="BackgroundImageFix"/>
<feColorMatrix in="SourceAlpha" type="matrix" values="0 0 0 0 0 0 0 0 0 0 0 0 0 0 0 0 0 0 127 0" result="hardAlpha"/>
<feOffset dy="4.2243"/>
<feGaussianBlur stdDeviation="2.11215"/>
<feComposite in2="hardAlpha" operator="out"/>
<feColorMatrix type="matrix" values="0 0 0 0 0 0 0 0 0 0 0 0 0 0 0 0 0 0 0.25 0"/>
<feBlend mode="normal" in2="BackgroundImageFix" result="effect1_dropShadow_69_13163"/>
<feBlend mode="normal" in="SourceGraphic" in2="effect1_dropShadow_69_13163" result="shape"/>
</filter>
<filter id="filter1_d_69_13163" x="-2.82488" y="10.0967" width="23.89" height="20.933" filterUnits="userSpaceOnUse" color-interpolation-filters="sRGB">
<feFlood flood-opacity="0" result="BackgroundImageFix"/>
<feColorMatrix in="SourceAlpha" type="matrix" values="0 0 0 0 0 0 0 0 0 0 0 0 0 0 0 0 0 0 127 0" result="hardAlpha"/>
<feOffset dy="4.2243"/>
<feGaussianBlur stdDeviation="2.11215"/>
<feComposite in2="hardAlpha" operator="out"/>
<feColorMatrix type="matrix" values="0 0 0 0 0 0 0 0 0 0 0 0 0 0 0 0 0 0 0.25 0"/>
<feBlend mode="normal" in2="BackgroundImageFix" result="effect1_dropShadow_69_13163"/>
<feBlend mode="normal" in="SourceGraphic" in2="effect1_dropShadow_69_13163" result="shape"/>
</filter>
<clipPath id="clip0_69_13163">
<rect width="113" height="23.2336" fill="white" transform="translate(0 0.411133)"/>
</clipPath>
</defs>
</svg>
